<svg aria-hidden="true" style="position: absolute; width: 0; height: 0; overflow: hidden;" version="1.1" xmlns="http://www.w3.org/2000/svg" xmlns:xlink="http://www.w3.org/1999/xlink">
<defs>
<symbol id="icon-loader" viewBox="0 0 24 24">
<path d="M11 2v4c0 0.552 0.448 1 1 1s1-0.448 1-1v-4c0-0.552-0.448-1-1-1s-1 0.448-1 1zM11 18v4c0 0.552 0.448 1 1 1s1-0.448 1-1v-4c0-0.552-0.448-1-1-1s-1 0.448-1 1zM4.223 5.637l2.83 2.83c0.391 0.391 1.024 0.391 1.414 0s0.391-1.024 0-1.414l-2.83-2.83c-0.391-0.391-1.024-0.391-1.414 0s-0.391 1.024 0 1.414zM15.533 16.947l2.83 2.83c0.391 0.391 1.024 0.391 1.414 0s0.391-1.024 0-1.414l-2.83-2.83c-0.391-0.391-1.024-0.391-1.414 0s-0.391 1.024 0 1.414zM2 13h4c0.552 0 1-0.448 1-1s-0.448-1-1-1h-4c-0.552 0-1 0.448-1 1s0.448 1 1 1zM18 13h4c0.552 0 1-0.448 1-1s-0.448-1-1-1h-4c-0.552 0-1 0.448-1 1s0.448 1 1 1zM5.637 19.777l2.83-2.83c0.391-0.391 0.391-1.024 0-1.414s-1.024-0.391-1.414 0l-2.83 2.83c-0.391 0.391-0.391 1.024 0 1.414s1.024 0.391 1.414 0zM16.947 8.467l2.83-2.83c0.391-0.391 0.391-1.024 0-1.414s-1.024-0.391-1.414 0l-2.83 2.83c-0.391 0.391-0.391 1.024 0 1.414s1.024 0.391 1.414 0z"></path>
</symbol>
<symbol id="icon-alert-triangle" viewBox="0 0 24 24">
<path d="m2.095 19.886 9.248-16.5c.133-.237.384-.384.657-.384.272 0 .524.147.656.384l9.248 16.5c.064.115.096.241.096.367 0 .385-.309.749-.752.749h-18.496c-.44 0-.752-.36-.752-.749 0-.126.031-.252.095-.367zm9.907-6.881c-.414 0-.75.336-.75.75v3.5c0 .414.336.75.75.75s.75-.336.75-.75v-3.5c0-.414-.336-.75-.75-.75zm-.002-3c-.552 0-1 .448-1 1s.448 1 1 1 1-.448 1-1-.448-1-1-1z" fill-rule="nonzero"/>
<!-- <path d="M11.148 4.374c0.073-0.123 0.185-0.242 0.334-0.332 0.236-0.143 0.506-0.178 0.756-0.116s0.474 0.216 0.614 0.448l8.466 14.133c0.070 0.12 0.119 0.268 0.128 0.434-0.015 0.368-0.119 0.591-0.283 0.759-0.18 0.184-0.427 0.298-0.693 0.301l-16.937-0.001c-0.152-0.001-0.321-0.041-0.481-0.134-0.239-0.138-0.399-0.359-0.466-0.607s-0.038-0.519 0.092-0.745zM9.432 3.346l-8.47 14.14c-0.422 0.731-0.506 1.55-0.308 2.29s0.68 1.408 1.398 1.822c0.464 0.268 0.976 0.4 1.475 0.402h16.943c0.839-0.009 1.587-0.354 2.123-0.902s0.864-1.303 0.855-2.131c-0.006-0.536-0.153-1.044-0.406-1.474l-8.474-14.147c-0.432-0.713-1.11-1.181-1.854-1.363s-1.561-0.081-2.269 0.349c-0.429 0.26-0.775 0.615-1.012 1.014zM11 9v4c0 0.552 0.448 1 1 1s1-0.448 1-1v-4c0-0.552-0.448-1-1-1s-1 0.448-1 1zM12 18c0.552 0 1-0.448 1-1s-0.448-1-1-1-1 0.448-1 1 0.448 1 1 1z"></path> -->
</symbol>
<symbol id='icon_bus-stop' viewBox="0 0 24 24">
<path d="M10 23h-1c-.552 0-1-.448-1-1v-1c-.53 0-1.039-.211-1.414-.586s-.586-.884-.586-1.414v-6c-.552 0-1-.448-1-1v-3c0-.552.448-1 1-1v-2c0-1.657 1.343-3 3-3h11c1.657 0 3 1.343 3 3v2c.552 0 1 .448 1 1v3c0 .552-.448 1-1 1v6c0 .53-.211 1.039-.586 1.414s-.884.586-1.414.586v1c0 .552-.448 1-1 1h-1c-.552 0-1-.448-1-1v-1h-7v1c0 .552-.448 1-1 1zm-5 0h-5v-1h2v-15h-1c-.552 0-1-.448-1-1v-4c0-.552.448-1 1-1h3c.552 0 1 .448 1 1v4c0 .552-.448 1-1 1h-1v15h2v1zm4.25-6.75c.69 0 1.25.56 1.25 1.25s-.56 1.25-1.25 1.25-1.25-.56-1.25-1.25.56-1.25 1.25-1.25zm10.5 0c.69 0 1.25.56 1.25 1.25s-.56 1.25-1.25 1.25-1.25-.56-1.25-1.25.56-1.25 1.25-1.25zm-3.25.75h-4c-.276 0-.5.224-.5.5s.224.5.5.5h4c.276 0 .5-.224.5-.5s-.224-.5-.5-.5zm4.5-10.5c0-.276-.224-.5-.5-.5h-12c-.276 0-.5.224-.5.5v7s.626 1 6.528 1c5.903 0 6.472-1 6.472-1v-7z"/>
</symbol>
<symbol id='icon_bus' viewBox="0 0 24 24">
<path d="M12 0c6.623 0 12 5.377 12 12s-5.377 12-12 12-12-5.377-12-12 5.377-12 12-12zm0 1c6.071 0 11 4.929 11 11s-4.929 11-11 11-11-4.929-11-11 4.929-11 11-11zm-3.5 18h-1.167c-.322 0-.583-.261-.583-.583v-.584c-.309 0-.606-.123-.825-.341-.219-.219-.342-.516-.342-.825v-4.667c-.322 0-.583-.261-.583-.583v-1.75c0-.322.261-.584.583-.584v-2.333c0-.966.784-1.75 1.75-1.75h9.334c.966 0 1.75.784 1.75 1.75v2.333c.322 0 .583.262.583.584v1.75c0 .322-.261.583-.583.583v4.667c0 .309-.123.606-.342.825-.219.218-.516.341-.825.341v.584c0 .322-.261.583-.583.583h-1.167c-.322 0-.583-.261-.583-.583v-.584h-5.834v.584c0 .322-.261.583-.583.583zm-.875-4.083c.483 0 .875.392.875.875s-.392.875-.875.875-.875-.392-.875-.875.392-.875.875-.875zm8.75 0c.483 0 .875.392.875.875s-.392.875-.875.875-.875-.392-.875-.875.392-.875.875-.875zm-2.917.583h-2.916c-.161 0-.292.131-.292.292 0 .161.131.291.292.291h2.916c.161 0 .292-.13.292-.291 0-.161-.131-.292-.292-.292zm3.792-7.292c0-.161-.131-.291-.292-.291h-9.916c-.161 0-.292.13-.292.291v4.959s1.807.583 5.25.583 5.25-.583 5.25-.583v-4.959zm-2.917-2.041h-4.666v.583h4.666v-.583z"/>
</symbol>
<symbol id='icon-menu' viewBox='0 0 24 24'> 
<path d="M24 6h-24v-4h24v4zm0 4h-24v4h24v-4zm0 8h-24v4h24v-4z"/>
</symbol>
</defs>
</svg>
